<svg width="198" height="62" viewBox="0 0 198 62" fill="none" xmlns="http://www.w3.org/2000/svg">
<path d="M6.15625 18.2812C8.71875 15.1354 12.0521 13.5625 16.1562 13.5625C23.3021 13.5625 26.9062 17.5938 26.9688 25.6562V48H21.1875V25.625C21.1667 23.1875 20.6042 21.3854 19.5 20.2188C18.4167 19.0521 16.7188 18.4688 14.4062 18.4688C12.5312 18.4688 10.8854 18.9688 9.46875 19.9688C8.05208 20.9688 6.94792 22.2812 6.15625 23.9062V48H0.375V0H6.15625V18.2812ZM46.6875 39.5312L54.5625 14.1875H60.75L47.1562 53.2188C45.0521 58.8438 41.7083 61.6562 37.125 61.6562L36.0312 61.5625L33.875 61.1562V56.4688L35.4375 56.5938C37.3958 56.5938 38.9167 56.1979 40 55.4062C41.1042 54.6146 42.0104 53.1667 42.7188 51.0625L44 47.625L31.9375 14.1875H38.25L46.6875 39.5312ZM94.5 31.4688C94.5 36.6146 93.3229 40.7604 90.9688 43.9062C88.6146 47.0521 85.4271 48.625 81.4062 48.625C77.3021 48.625 74.0729 47.3229 71.7188 44.7188V61H65.9375V14.1875H71.2188L71.5 17.9375C73.8542 15.0208 77.125 13.5625 81.3125 13.5625C85.375 13.5625 88.5833 15.0938 90.9375 18.1562C93.3125 21.2188 94.5 25.4792 94.5 30.9375V31.4688ZM88.7188 30.8125C88.7188 27 87.9062 23.9896 86.2812 21.7812C84.6562 19.5729 82.4271 18.4688 79.5938 18.4688C76.0938 18.4688 73.4688 20.0208 71.7188 23.125V39.2812C73.4479 42.3646 76.0938 43.9062 79.6562 43.9062C82.4271 43.9062 84.625 42.8125 86.25 40.625C87.8958 38.4167 88.7188 35.1458 88.7188 30.8125ZM107.656 18.2812C110.219 15.1354 113.552 13.5625 117.656 13.5625C124.802 13.5625 128.406 17.5938 128.469 25.6562V48H122.688V25.625C122.667 23.1875 122.104 21.3854 121 20.2188C119.917 19.0521 118.219 18.4688 115.906 18.4688C114.031 18.4688 112.385 18.9688 110.969 19.9688C109.552 20.9688 108.448 22.2812 107.656 23.9062V48H101.875V0H107.656V18.2812ZM151.156 48.625C146.573 48.625 142.844 47.125 139.969 44.125C137.094 41.1042 135.656 37.0729 135.656 32.0312V30.9688C135.656 27.6146 136.292 24.625 137.562 22C138.854 19.3542 140.646 17.2917 142.938 15.8125C145.25 14.3125 147.75 13.5625 150.438 13.5625C154.833 13.5625 158.25 15.0104 160.688 17.9062C163.125 20.8021 164.344 24.9479 164.344 30.3438V32.75H141.438C141.521 36.0833 142.49 38.7812 144.344 40.8438C146.219 42.8854 148.594 43.9062 151.469 43.9062C153.51 43.9062 155.24 43.4896 156.656 42.6562C158.073 41.8229 159.312 40.7188 160.375 39.3438L163.906 42.0938C161.073 46.4479 156.823 48.625 151.156 48.625ZM150.438 18.3125C148.104 18.3125 146.146 19.1667 144.562 20.875C142.979 22.5625 142 24.9375 141.625 28H158.562V27.5625C158.396 24.625 157.604 22.3542 156.188 20.75C154.771 19.125 152.854 18.3125 150.438 18.3125ZM176.531 14.1875L176.719 18.4375C179.302 15.1875 182.677 13.5625 186.844 13.5625C193.99 13.5625 197.594 17.5938 197.656 25.6562V48H191.875V25.625C191.854 23.1875 191.292 21.3854 190.188 20.2188C189.104 19.0521 187.406 18.4688 185.094 18.4688C183.219 18.4688 181.573 18.9688 180.156 19.9688C178.74 20.9688 177.635 22.2812 176.844 23.9062V48H171.062V14.1875H176.531Z" fill="black"/>
</svg>
